<svg id="Layer_1" data-name="Layer 1" xmlns="http://www.w3.org/2000/svg" xmlns:xlink="http://www.w3.org/1999/xlink" viewBox="0 0 1920 1080"><defs><style>.cls-1,.cls-29{fill:none;}.cls-2{clip-path:url(#clip-path);}.cls-10,.cls-16,.cls-22,.cls-3{mix-blend-mode:multiply;}.cls-4{clip-path:url(#clip-path-2);}.cls-16,.cls-5{fill:#c6dd7f;}.cls-6{clip-path:url(#clip-path-3);}.cls-10,.cls-7{fill:#e9ddb7;}.cls-8{clip-path:url(#clip-path-4);}.cls-22,.cls-9{fill:#a6d0e4;}.cls-11{clip-path:url(#clip-path-5);}.cls-12{clip-path:url(#clip-path-6);}.cls-13{clip-path:url(#clip-path-7);}.cls-14{clip-path:url(#clip-path-8);}.cls-15{clip-path:url(#clip-path-9);}.cls-17{clip-path:url(#clip-path-10);}.cls-18{clip-path:url(#clip-path-11);}.cls-19{clip-path:url(#clip-path-12);}.cls-20{clip-path:url(#clip-path-13);}.cls-21{clip-path:url(#clip-path-14);}.cls-23{clip-path:url(#clip-path-15);}.cls-24{clip-path:url(#clip-path-16);}.cls-25{font-size:148.16px;}.cls-25,.cls-33,.cls-50{fill:aqua;}.cls-25,.cls-50{stroke:#b2831e;font-family:Neplus-Ultra, Neplus;}.cls-25,.cls-29,.cls-50{stroke-miterlimit:10;}.cls-26{clip-path:url(#clip-path-17);}.cls-27{clip-path:url(#clip-path-19);}.cls-28{fill:url(#linear-gradient);}.cls-29{stroke:#000;stroke-width:0.58px;}.cls-30{clip-path:url(#clip-path-21);}.cls-31{fill:url(#linear-gradient-2);}.cls-32{clip-path:url(#clip-path-22);}.cls-34{fill:#fff;}.cls-35{fill:#557c3e;}.cls-36{clip-path:url(#clip-path-24);}.cls-37{fill:url(#radial-gradient);}.cls-38{fill:#a9c358;}.cls-39{clip-path:url(#clip-path-26);}.cls-40{fill:url(#linear-gradient-3);}.cls-41{fill:#b9c55a;}.cls-42{clip-path:url(#clip-path-28);}.cls-43{fill:url(#linear-gradient-4);}.cls-44{fill:#22b573;}.cls-45{clip-path:url(#clip-path-30);}.cls-46{fill:url(#linear-gradient-5);}.cls-47{fill:#39b54a;}.cls-48{fill:url(#Unnamed_Pattern);}.cls-49{fill:#00a9d3;}.cls-50{font-size:66.62px;}.cls-51{clip-path:url(#clip-path-32);}.cls-52{fill:red;}.cls-53{fill:#1a1a1a;}</style><clipPath id="clip-path"><rect class="cls-1" width="144.13" height="138.36"/></clipPath><clipPath id="clip-path-2"><rect class="cls-1" x="133.74" y="-78.47" width="92.88" height="86.47"/></clipPath><clipPath id="clip-path-3"><rect class="cls-1" x="19.83" y="-17.82" width="35.83" height="55.68"/></clipPath><clipPath id="clip-path-4"><rect class="cls-1" x="105.68" y="-24.74" width="26.62" height="41.77"/></clipPath><clipPath id="clip-path-5"><rect class="cls-1" x="52.42" y="-54.86" width="58.6" height="119.58"/></clipPath><clipPath id="clip-path-6"><rect class="cls-1" x="-10.39" y="-78.47" width="92.87" height="86.47"/></clipPath><clipPath id="clip-path-7"><rect class="cls-1" x="133.74" y="59.9" width="92.88" height="86.47"/></clipPath><clipPath id="clip-path-8"><rect class="cls-1" x="13.29" y="54.55" width="41.82" height="28.82"/></clipPath><clipPath id="clip-path-9"><rect class="cls-1" x="19.83" y="120.54" width="35.83" height="55.68"/></clipPath><clipPath id="clip-path-10"><rect class="cls-1" x="89.8" y="49.33" width="61.58" height="43.37"/></clipPath><clipPath id="clip-path-11"><rect class="cls-1" x="44.17" y="6.07" width="112" height="121.94"/></clipPath><clipPath id="clip-path-12"><rect class="cls-1" x="105.68" y="113.62" width="26.62" height="41.77"/></clipPath><clipPath id="clip-path-13"><rect class="cls-1" x="52.42" y="83.51" width="58.6" height="119.58"/></clipPath><clipPath id="clip-path-14"><rect class="cls-1" x="-10.39" y="59.9" width="92.87" height="86.47"/></clipPath><clipPath id="clip-path-15"><rect class="cls-1" x="-54.33" y="49.33" width="61.58" height="43.37"/></clipPath><clipPath id="clip-path-16"><rect class="cls-1" x="-99.96" y="6.07" width="112" height="121.94"/></clipPath><clipPath id="clip-path-17"><rect class="cls-1" x="31.77" y="44.87" width="386.38" height="138.22" transform="translate(-15.87 39.14) rotate(-9.61)"/></clipPath><clipPath id="clip-path-19"><polyline class="cls-1" points="226.86 83.13 293.04 68.8 318.57 61.55 345.88 54.35 356.93 43.2 370.81 35.7 389.89 29.9 398.63 31.51 405.34 42.22 410.87 56.45 408.64 66.96 393.64 75.75 371.46 79.5 355.88 82.14 239.46 112.01"/></clipPath><linearGradient id="linear-gradient" x2="1" gradientTransform="matrix(185.88, 0, 0, -214.82, 226, 70.23)" gradientUnits="userSpaceOnUse"><stop offset="0" stop-color="#333f29"/><stop offset="0.26" stop-color="#c09812"/><stop offset="0.35" stop-color="#b07f20"/><stop offset="0.67" stop-color="#666b43"/><stop offset="0.7" stop-color="#6e4f0e"/><stop offset="1" stop-color="#867774"/></linearGradient><clipPath id="clip-path-21"><path class="cls-1" d="M66.29,87c-13.39,9-18.74,23.06-23.14,34.38-4.79,12.34-8.43,21.7-6.71,34.59a56.23,56.23,0,0,0,13.81,29.57c8.83,10,18.38,13.35,25,15.65a64.86,64.86,0,0,0,34.37,2.05c10.49-2,23.93-4.52,33.66-16.24,13-15.66,8.91-35.09,18.54-37.65,5.86-1.57,8,5.48,20,8.62,8.39,2.19,14.85.61,27.79-2.56,16.81-4.1,25.21-6.16,29-12.63,6.12-10.34,2.27-25.06-.37-35.12a84.24,84.24,0,0,0-10.23-23.16c-5.17-8.57-8.43-14-14.51-17.71-7.05-4.33-13.56-3.73-24.59-2.71-7.57.71-16.6,1.54-26.21,7.45-8.74,5.36-9.48,9.71-17.87,12.89-1.89.71-6.56,2.28-17.54,1.68-21.34-1.17-25.94-8.28-40.16-6.94-1,.1-2,.23-3,.4a45.51,45.51,0,0,0-18,7.44"/></clipPath><linearGradient id="linear-gradient-2" x2="1" gradientTransform="matrix(207.89, 0, 0, -240.25, 34.24, 134.36)" gradientUnits="userSpaceOnUse"><stop offset="0" stop-color="#00595c"/><stop offset="0.39" stop-color="#a6b8c2"/><stop offset="0.56" stop-color="#a8a39b"/><stop offset="0.68" stop-color="#2e3418"/><stop offset="0.85" stop-color="#6a7989"/><stop offset="1" stop-color="#d7dee2"/></linearGradient><clipPath id="clip-path-22"><rect class="cls-1" x="33.97" y="71.02" width="208.43" height="126.84" transform="translate(-20.5 24.94) rotate(-9.61)"/></clipPath><clipPath id="clip-path-24"><path class="cls-1" d="M369,82.45c-1-.76-2-1-2.71-.51s-.79,2-.76,3.14a9.4,9.4,0,0,0,1.26,4.4c.52.91,1.64,2.86,3.72,3.46a5.19,5.19,0,0,0,4.16-.78,5.92,5.92,0,0,0,2.59-2.67c1-2.31.1-5.72-2.2-8.43l-3.15-2.49L369,82.45"/></clipPath><radialGradient id="radial-gradient" cx="0" cy="0" r="1" gradientTransform="matrix(6.05, 0, 0, -6.99, 371.55, 85.89)" gradientUnits="userSpaceOnUse"><stop offset="0" stop-color="#698a91"/><stop offset="0.54" stop-color="#335c64"/><stop offset="1" stop-color="#02383b"/></radialGradient><clipPath id="clip-path-26"><path class="cls-1" d="M383.19,80.91a2.27,2.27,0,0,0-2.68.44c-.62.85-.22,2.19.11,3.3A8.88,8.88,0,0,0,383,88.47c.73.7,2.3,2.2,4.4,2.06a5.44,5.44,0,0,0,3.7-2.2,6.71,6.71,0,0,0,1.73-3.48c.31-2.58-1.42-5.58-4.29-7.4l-3.62-1.31-1.7,4.77"/></clipPath><linearGradient id="linear-gradient-3" y1="-0.01" x2="1" y2="-0.01" gradientTransform="matrix(12.31, 0, 0, -14.23, 380.36, 83.25)" gradientUnits="userSpaceOnUse"><stop offset="0" stop-color="#eed387"/><stop offset="0.5" stop-color="#e6c14c"/><stop offset="1" stop-color="#e1b724"/></linearGradient><clipPath id="clip-path-28"><path class="cls-1" d="M397.81,72.47c.14,1.75.29,3.49.44,5.24a2.5,2.5,0,0,0-2.15,1.82c-.19,1.1.69,2.1,1.43,2.94a7.37,7.37,0,0,0,3.56,2.24,5.35,5.35,0,0,0,4.64-.45,6.58,6.58,0,0,0,2.33-4,7.8,7.8,0,0,0,.09-4.08c-.76-2.51-3.46-4.32-6.68-4.46Z"/></clipPath><linearGradient id="linear-gradient-4" y1="-0.02" x2="1" y2="-0.02" gradientTransform="matrix(12.58, 0, 0, -14.54, 395.95, 78.46)" gradientUnits="userSpaceOnUse"><stop offset="0" stop-color="#999674"/><stop offset="0.5" stop-color="#737144"/><stop offset="1" stop-color="#5a5c2a"/></linearGradient><clipPath id="clip-path-30"><path class="cls-1" d="M245.07,76.74a4.38,4.38,0,0,0,1.68,3.17l.53.15,15.53,8.76.08,0c.56.27,1.12.25,1.38-.38a1.21,1.21,0,0,0-.64-1.55l-12.89-7.52-4.57-2.67a1.09,1.09,0,0,0-.73-.15.85.85,0,0,0-.37.15"/></clipPath><linearGradient id="linear-gradient-5" x2="1" gradientTransform="matrix(17.17, 0, 0, -19.84, 246.21, 82.75)" gradientUnits="userSpaceOnUse"><stop offset="0" stop-color="#b3c6d0"/><stop offset="0.54" stop-color="#7895a4"/><stop offset="1" stop-color="#436676"/></linearGradient><pattern id="Unnamed_Pattern" data-name="Unnamed Pattern" width="144.13" height="138.36" patternTransform="matrix(0.54, -0.09, -0.11, -0.62, 1666.19, 9442.29)" patternUnits="userSpaceOnUse" viewBox="0 0 144.13 138.36"><rect class="cls-1" width="144.13" height="138.36"/><g class="cls-2"><g class="cls-3"><g class="cls-4"><path class="cls-5" d="M211.07-20.16c-11.76,1.38-19.37-.35-22.65-3.11-3-2.55-5-5.41-2.25-11.93,2.94-7.1,1.53-14.74-5.53-15.91-6.23-1-10.9,4.84-11.24,12.27-.25,5.19-1.91,8.3-5.54,7.61s-4.63-5.9-3.63-11.76c1.38-8.12,5.53-11.76,6.23-20.23.49-6-2.94-13.66-12.46-15-9.3-1.35-15.91,4.33-16.6,10.55-.73,6.59,3.63,10.9,3.11,17.64s-4,10.17-5.87,17.3c-2.77,10.55,1.21,19,7.78,22.65,14.74,8.15,22.83-3.64,36-1.56,10.89,1.73,23.34,18.16,33,19.55,8.23,1.17,13.83-4.67,15-14s-4.74-15.26-15.39-14m-42.19-.52a4.15,4.15,0,0,1-4.15,4.15,4.15,4.15,0,0,1-4.15-4.15,4.15,4.15,0,0,1,4.15-4.15,4.15,4.15,0,0,1,4.15,4.15M218.34-5.29a1.73,1.73,0,0,1-1.73,1.73,1.72,1.72,0,0,1-1.73-1.73A1.73,1.73,0,0,1,216.61-7a1.74,1.74,0,0,1,1.73,1.73"/></g></g><g class="cls-3"><g class="cls-6"><path class="cls-7" d="M48.83-1c0-7.17,4.59-13.82-1-16.33-8.5-3.84-28,14.33-28,36.16,0,12,8.67,19,17.84,19,12.33,0,18-8.16,18-17.5S48.83,7.22,48.83-1M43.42,4.4a2.08,2.08,0,1,1-2.07-2.08A2.07,2.07,0,0,1,43.42,4.4"/></g></g><g class="cls-3"><g class="cls-8"><path class="cls-9" d="M123.53-24.47c-7.87-2.73-19.44,15.3-17.67,27C107.1,10.78,113,15.74,119,16.77c7.52,1.3,12.9-2.6,13.3-7.24.55-6.31-3.63-7.52-4.22-15-.57-7.14,3.69-16.19-4.5-19M119.74,3A2.59,2.59,0,1,1,117.15.45,2.59,2.59,0,0,1,119.74,3"/></g></g><path class="cls-10" d="M19.39-2a2.6,2.6,0,0,0-2.6-2.6A2.6,2.6,0,0,0,14.2-2,2.59,2.59,0,0,0,16.79.59,2.59,2.59,0,0,0,19.39-2"/><g class="cls-3"><g class="cls-11"><path class="cls-9" d="M84.61,5.72c.74-8.1,12.67-7,17.9-14.21C113-23,101.29-54.86,80.88-54.86c-11.74,0-24.21,9.72-24.21,29.22,0,15.84,10.16,21.5,8.25,42.17-1,10.83-12.5,20.34-12.5,34.75C52.42,57.2,56,64.73,64,64.73c7,0,10.82-6,10.82-12.9s-5.38-15.74,1.38-19c5.24-2.57,13.21,4.77,19.5,6.75,5.19,1.63,12.39-.23,14.75-8.5,2.53-8.88-3.26-14.75-11.6-16.69C92.51,12.86,84,12.16,84.61,5.72m-16,30.56A3.29,3.29,0,1,1,65.34,33a3.28,3.28,0,0,1,3.28,3.28m26-9.69a2.33,2.33,0,1,1-2.33,2.33,2.33,2.33,0,0,1,2.33-2.33m-20-59.68a3.28,3.28,0,0,1-3.28,3.29,3.29,3.29,0,0,1-3.29-3.29,3.28,3.28,0,0,1,3.29-3.28,3.28,3.28,0,0,1,3.28,3.28"/></g></g><g class="cls-3"><g class="cls-12"><path class="cls-5" d="M66.94-20.16c-11.76,1.38-19.37-.35-22.65-3.11-3-2.55-5-5.41-2.25-11.93,2.94-7.1,1.53-14.74-5.53-15.91-6.23-1-10.9,4.84-11.24,12.27-.24,5.19-1.91,8.3-5.54,7.61S15.1-37.13,16.1-43c1.39-8.12,5.54-11.76,6.23-20.23.49-6-2.94-13.66-12.45-15C.57-79.62-6-73.94-6.73-67.72c-.73,6.59,3.63,10.9,3.12,17.64s-4,10.17-5.88,17.3c-2.77,10.55,1.21,19,7.78,22.65C13-2,21.12-13.77,34.26-11.69,45.15-10,57.6,6.47,67.29,7.86c8.23,1.17,13.83-4.67,15-14s-4.74-15.26-15.39-14m-42.19-.52a4.15,4.15,0,0,1-4.15,4.15,4.15,4.15,0,0,1-4.15-4.15,4.15,4.15,0,0,1,4.15-4.15,4.15,4.15,0,0,1,4.15,4.15M74.21-5.29a1.73,1.73,0,0,1-1.73,1.73,1.72,1.72,0,0,1-1.73-1.73A1.73,1.73,0,0,1,72.48-7a1.74,1.74,0,0,1,1.73,1.73"/></g></g><g class="cls-3"><path class="cls-9" d="M190.32,26.37c0-6.22-4.15-10.72-8.65-11.58s-8.31,1.28-13-1.21c-4.84-2.6-7.09-11.07-16.77-11.07-8,0-15.22,8-15.22,18.85,0,20.23,13.14,29.23,25.6,29.23,16.6,0,28-12.63,28-24.22M170.61,40.73a3.81,3.81,0,1,1-3.81-3.81,3.81,3.81,0,0,1,3.81,3.81"/></g><g class="cls-3"><g class="cls-13"><path class="cls-5" d="M211.07,118.2c-11.76,1.39-19.37-.34-22.65-3.11-3-2.54-5-5.41-2.25-11.93,2.94-7.09,1.53-14.73-5.53-15.91-6.23-1-10.9,4.84-11.24,12.28-.25,5.18-1.91,8.3-5.54,7.61s-4.63-5.91-3.63-11.76c1.38-8.13,5.53-11.76,6.23-20.24.49-6-2.94-13.66-12.46-15-9.3-1.36-15.91,4.32-16.6,10.55-.73,6.58,3.63,10.89,3.11,17.64s-4,10.17-5.87,17.29c-2.77,10.55,1.21,19,7.78,22.65,14.74,8.15,22.83-3.64,36-1.55,10.89,1.73,23.34,18.16,33,19.54,8.23,1.17,13.83-4.67,15-14s-4.74-15.26-15.39-14m-42.19-.52a4.15,4.15,0,1,1-4.15-4.15,4.15,4.15,0,0,1,4.15,4.15m49.46,15.4a1.73,1.73,0,1,1-1.73-1.73,1.74,1.74,0,0,1,1.73,1.73"/></g></g><g class="cls-3"><g class="cls-14"><path class="cls-9" d="M31.83,54.72c-13.95-2-21.16,13.34-17.66,20.34,3.66,7.33,12.12,4.16,19.5,4.16,9.66,0,16.36,7.57,20.41,2.25,4.25-5.58-5-24.29-22.25-26.75m.53,17.48A2.25,2.25,0,1,1,30.11,70a2.25,2.25,0,0,1,2.25,2.24"/></g></g><g class="cls-3"><g class="cls-15"><path class="cls-7" d="M48.83,137.39c0-7.17,4.59-13.81-1-16.33-8.5-3.84-28,14.33-28,36.16,0,12,8.67,19,17.84,19,12.33,0,18-8.16,18-17.5s-6.84-13.14-6.84-21.33m-5.41,5.37a2.08,2.08,0,1,1-2.07-2.08,2.07,2.07,0,0,1,2.07,2.08"/></g></g><g class="cls-3"><path class="cls-9" d="M46.19,26.37c0-6.22-4.15-10.72-8.65-11.58s-8.31,1.28-13-1.21C19.73,11,17.48,2.51,7.8,2.51c-8,0-15.22,8-15.22,18.85,0,20.23,13.15,29.23,25.6,29.23,16.6,0,28-12.63,28-24.22M26.48,40.73a3.81,3.81,0,1,1-3.81-3.81,3.81,3.81,0,0,1,3.81,3.81"/></g><path class="cls-16" d="M45.5,50.07a2.42,2.42,0,1,0-2.42,2.42,2.42,2.42,0,0,0,2.42-2.42"/><g class="cls-3"><g class="cls-17"><path class="cls-9" d="M129.2,68.57c-3.19-4.68,1-10.72-1.38-15.22s-6.75-5-9.86-2.59c-3.64,2.83-3.41,6.64-8.3,8.82-5.53,2.46-18-2.25-19.72,7.26-.87,4.81,2.38,8.57,7.27,9.69,6.05,1.38,9.35.17,15.39,3.11s11.24,9,22.13,12.1c10.41,3,16.08-1.55,16.61-5.88,1-8.47-17.13-9.94-22.14-17.29M127,76a2.25,2.25,0,1,1-2.25-2.25A2.25,2.25,0,0,1,127,76"/></g></g><g class="cls-3"><g class="cls-18"><path class="cls-7" d="M156.17,29.39c0-17.17-14.5-25.5-27-22.83C118.9,8.75,116.33,23.89,112.5,32.72c-3.71,8.56-8.83,22.5-20.17,22.5S79.5,40.72,68.67,40.72c-11,0-24.5,15.67-24.5,39.67,0,14.67,9.79,31.46,20.83,30.67,11.67-.84,4.5-19.67,15.33-19.67,9.5,0,7.86,16.26,9.17,23.33,1.67,9,6.83,14.17,18.5,13.17,14.44-1.24,22.33-13.5,18.87-23.34-4-11.45-23.87-17.33-21.54-30.49,1.35-7.6,13-12,26-16.17,14.53-4.66,24.84-11.33,24.84-28.5m-45,75.84a3.29,3.29,0,1,1,3.29,3.29,3.29,3.29,0,0,1-3.29-3.29M64.52,80.33a1.73,1.73,0,1,1-1.73-1.73,1.72,1.72,0,0,1,1.73,1.73M82,69.61a3.81,3.81,0,1,1-3.81-3.81A3.8,3.8,0,0,1,82,69.61m19.89,15.56a1.56,1.56,0,1,1-1.56-1.55,1.56,1.56,0,0,1,1.56,1.55m29.64-54.69a3.18,3.18,0,1,1-3.17-3.18,3.17,3.17,0,0,1,3.17,3.18"/></g></g><g class="cls-3"><g class="cls-19"><path class="cls-9" d="M123.53,113.9c-7.87-2.74-19.44,15.29-17.67,27,1.24,8.22,7.12,13.18,13.09,14.21,7.52,1.3,12.9-2.6,13.3-7.24.55-6.31-3.63-7.52-4.22-15-.57-7.13,3.69-16.18-4.5-19m-3.79,27.5a2.59,2.59,0,1,1-2.59-2.59,2.59,2.59,0,0,1,2.59,2.59"/></g></g><path class="cls-10" d="M19.39,136.36a2.6,2.6,0,1,0-2.6,2.6,2.59,2.59,0,0,0,2.6-2.6"/><path class="cls-10" d="M153.38,49.62c0,8.41-5.07,15.23-11.34,15.23S130.7,58,130.7,49.62,135.78,37.18,142,37.18s11.34,4,11.34,12.44"/><g class="cls-3"><g class="cls-20"><path class="cls-9" d="M84.61,144.09c.74-8.11,12.67-7,17.9-14.22C113,115.4,101.29,83.51,80.88,83.51c-11.74,0-24.21,9.71-24.21,29.21,0,15.84,10.16,21.5,8.25,42.17-1,10.83-12.5,20.34-12.5,34.75,0,5.92,3.58,13.45,11.55,13.45,7,0,10.82-6,10.82-12.9s-5.38-15.74,1.38-19.05c5.24-2.56,13.21,4.77,19.5,6.75,5.19,1.64,12.39-.22,14.75-8.5,2.53-8.88-3.26-14.74-11.6-16.69-6.31-1.48-14.8-2.17-14.21-8.61m-16,30.55a3.29,3.29,0,1,1-3.28-3.28,3.28,3.28,0,0,1,3.28,3.28m26-9.69a2.33,2.33,0,1,1-2.33,2.33A2.33,2.33,0,0,1,94.61,165m-20-59.67A3.29,3.29,0,1,1,71.34,102a3.28,3.28,0,0,1,3.28,3.29"/></g></g><g class="cls-3"><g class="cls-21"><path class="cls-5" d="M66.94,118.2c-11.76,1.39-19.37-.34-22.65-3.11-3-2.54-5-5.41-2.25-11.93,2.94-7.09,1.53-14.73-5.53-15.91-6.23-1-10.9,4.84-11.24,12.28-.24,5.18-1.91,8.3-5.54,7.61s-4.63-5.91-3.63-11.76c1.39-8.13,5.54-11.76,6.23-20.24.49-6-2.94-13.66-12.45-15C.57,58.74-6,64.42-6.73,70.65c-.73,6.58,3.63,10.89,3.12,17.64s-4,10.17-5.88,17.29c-2.77,10.55,1.21,19,7.78,22.65,14.74,8.15,22.83-3.64,36-1.55,10.89,1.73,23.34,18.16,33,19.54,8.23,1.17,13.83-4.67,15-14s-4.74-15.26-15.39-14m-42.19-.52a4.15,4.15,0,1,1-4.15-4.15,4.15,4.15,0,0,1,4.15,4.15m49.46,15.4a1.73,1.73,0,1,1-1.73-1.73,1.74,1.74,0,0,1,1.73,1.73"/></g></g><path class="cls-16" d="M130.24,95.89a1.39,1.39,0,1,0-1.39,1.39,1.38,1.38,0,0,0,1.39-1.39"/><path class="cls-7" d="M135.77,134.29a2.25,2.25,0,1,0-2.25,2.25,2.24,2.24,0,0,0,2.25-2.25"/><path class="cls-9" d="M52.24,111.11A1.21,1.21,0,1,0,51,112.32a1.21,1.21,0,0,0,1.21-1.21"/><path class="cls-9" d="M48.61,42.63A1.38,1.38,0,1,0,47.23,44a1.38,1.38,0,0,0,1.38-1.38"/><path class="cls-10" d="M133.18,64.59a1.21,1.21,0,1,0-2.42,0,1.21,1.21,0,1,0,2.42,0"/><path class="cls-5" d="M95.89,46.67a3.41,3.41,0,1,0-3.41,3.41,3.41,3.41,0,0,0,3.41-3.41"/><path class="cls-10" d="M100.87,6.82a2.1,2.1,0,1,0-2.1,2.09,2.1,2.1,0,0,0,2.1-2.09"/><path class="cls-10" d="M62.07,13.11a1.58,1.58,0,1,0-1.58,1.57,1.57,1.57,0,0,0,1.58-1.57"/><path class="cls-5" d="M135.74,127.16a2.62,2.62,0,1,0-2.62,2.62,2.62,2.62,0,0,0,2.62-2.62"/><path class="cls-22" d="M125.51,92.29a2.36,2.36,0,1,0-2.36,2.36,2.36,2.36,0,0,0,2.36-2.36"/><path class="cls-7" d="M27.72,85.73a2.62,2.62,0,1,0-2.62,2.63,2.62,2.62,0,0,0,2.62-2.63"/><path class="cls-22" d="M22.74,92.81a1.31,1.31,0,1,0-1.31,1.31,1.31,1.31,0,0,0,1.31-1.31"/><path class="cls-10" d="M87,40.9a1.57,1.57,0,1,0-1.57,1.57A1.57,1.57,0,0,0,87,40.9"/><g class="cls-3"><g class="cls-23"><path class="cls-9" d="M-14.93,68.57c-3.19-4.68,1-10.72-1.38-15.22s-6.75-5-9.86-2.59c-3.64,2.83-3.41,6.64-8.3,8.82-5.53,2.46-18-2.25-19.72,7.26-.87,4.81,2.38,8.57,7.27,9.69,6.05,1.38,9.35.17,15.39,3.11s11.24,9,22.13,12.1C1,94.72,6.68,90.19,7.21,85.86c1-8.47-17.13-9.94-22.14-17.29M-17.18,76a2.25,2.25,0,0,1-2.25,2.25A2.24,2.24,0,0,1-21.67,76a2.24,2.24,0,0,1,2.24-2.25A2.25,2.25,0,0,1-17.18,76"/></g></g><g class="cls-3"><g class="cls-24"><path class="cls-7" d="M12,29.39C12,12.22-2.46,3.89-15,6.56-25.23,8.75-27.8,23.89-31.63,32.72c-3.71,8.56-8.83,22.5-20.17,22.5s-12.83-14.5-23.66-14.5c-11,0-24.5,15.67-24.5,39.67,0,14.67,9.8,31.46,20.83,30.67,11.67-.84,4.5-19.67,15.33-19.67,9.5,0,7.86,16.26,9.17,23.33,1.67,9,6.83,14.17,18.5,13.17,14.44-1.24,22.33-13.5,18.87-23.34-4-11.45-23.87-17.33-21.54-30.49,1.35-7.6,13-12,26-16.17C1.73,53.23,12,46.56,12,29.39m-44.95,75.84A3.28,3.28,0,0,1-29.63,102a3.28,3.28,0,0,1,3.29,3.28,3.29,3.29,0,0,1-3.29,3.29,3.28,3.28,0,0,1-3.28-3.29m-46.7-24.9a1.72,1.72,0,0,1-1.73,1.73,1.73,1.73,0,0,1-1.73-1.73,1.73,1.73,0,0,1,1.73-1.73,1.72,1.72,0,0,1,1.73,1.73m17.47-10.72a3.8,3.8,0,0,1-3.81,3.8,3.8,3.8,0,0,1-3.8-3.8,3.81,3.81,0,0,1,3.8-3.81,3.81,3.81,0,0,1,3.81,3.81m19.89,15.56a1.56,1.56,0,0,1-1.56,1.56,1.56,1.56,0,0,1-1.56-1.56,1.55,1.55,0,0,1,1.56-1.55,1.55,1.55,0,0,1,1.56,1.55m29.64-54.69a3.17,3.17,0,0,1-3.17,3.17A3.17,3.17,0,0,1-19,30.48a3.18,3.18,0,0,1,3.18-3.18,3.17,3.17,0,0,1,3.17,3.18"/></g></g><path class="cls-10" d="M9.26,49.62C9.26,58,4.18,64.85-2.08,64.85S-13.42,58-13.42,49.62-8.35,37.18-2.08,37.18s11.34,4,11.34,12.44"/></g></pattern><clipPath id="clip-path-32"><rect class="cls-1" x="1647.48" y="-107.58" width="254.31" height="436.31" transform="translate(1630.64 1882.81) rotate(-88.92)"/></clipPath></defs><title>glsHeader2</title><text class="cls-25" transform="matrix(0.56, -0.09, 0.15, 0.99, 445.06, 159.58)">G</text><text class="cls-25" transform="translate(514.05 148.81) rotate(-7.47) scale(0.57 1)">u</text><text class="cls-25" transform="translate(577.64 140.6) rotate(-6.47) scale(0.57 1)">i</text><text class="cls-25" transform="translate(612.48 136.59) rotate(-5.73) scale(0.57 1)">t</text><text class="cls-25" transform="matrix(0.56, -0.05, 0.08, 1, 660.9, 131.7)">a</text><text class="cls-25" transform="translate(717.79 126.94) rotate(-3.97) scale(0.57 1)">r</text><text class="cls-25" transform="translate(763.67 123.82) rotate(-3.47) scale(0.57 1)"> </text><text class="cls-25" transform="translate(781.83 122.62) rotate(-2.89) scale(0.57 1)">L</text><text class="cls-25" transform="translate(838.5 119.75) rotate(-2.04) scale(0.57 1)">a</text><text class="cls-25" transform="translate(895.53 117.69) rotate(-1.17) scale(0.57 1)">n</text><text class="cls-25" transform="translate(959.63 116.41) rotate(-0.31) scale(0.57 1)">g</text><text class="cls-25" transform="matrix(0.57, 0.01, -0.01, 1, 1016.71, 116.07)">u</text><text class="cls-25" transform="translate(1080.9 116.69) rotate(1.39) scale(0.57 1)">a</text><text class="cls-25" transform="matrix(0.57, 0.02, -0.04, 1, 1137.98, 118.07)">g</text><text class="cls-25" transform="matrix(0.57, 0.03, -0.05, 1, 1195.01, 120.29)">e</text><text class="cls-25" transform="translate(1249.63 123.3) rotate(3.62) scale(0.57 1)"> </text><text class="cls-25" transform="translate(1267.75 124.31) rotate(4.28) scale(0.57 1)">S</text><text class="cls-25" transform="translate(1331.55 129.12) rotate(5.27) scale(0.57 1)">e</text><text class="cls-25" transform="matrix(0.56, 0.06, -0.11, 0.99, 1385.86, 134.16)">r</text><text class="cls-25" transform="translate(1431.45 139.11) rotate(6.96) scale(0.57 1)">i</text><text class="cls-25" transform="translate(1468.36 143.53) rotate(7.88) scale(0.57 1)">e</text><text class="cls-25" transform="translate(1522.26 150.99) rotate(9.06) scale(0.57 1)">s</text><g id="bigger_body_guitar" data-name="bigger body guitar"><g class="cls-26"><g class="cls-26"><g class="cls-27"><rect class="cls-28" x="226" y="42.3" width="185.88" height="55.86" transform="translate(-7.25 54.2) rotate(-9.61)"/></g><g class="cls-26"><polyline class="cls-29" points="226.86 83.13 293.04 68.8 318.57 61.55 345.88 54.35 356.93 43.2 370.81 35.7 389.89 29.9 398.63 31.51 405.34 42.22 410.87 56.45 408.64 66.96 393.64 75.75 371.46 79.5 355.88 82.14 239.46 112.01"/></g><g class="cls-30"><rect class="cls-31" x="33.71" y="71.25" width="209.97" height="126.37" transform="translate(-20.49 25.03) rotate(-9.61)"/></g><g class="cls-32"><path class="cls-29" d="M43.15,121.39C47.55,110.07,52.9,96,66.29,87a44.88,44.88,0,0,1,20.95-7.84c14.22-1.34,18.82,5.77,40.16,6.94,11,.6,15.65-1,17.54-1.68,8.39-3.18,9.13-7.53,17.87-12.9,9.61-5.9,18.64-6.73,26.21-7.44,11-1,17.54-1.62,24.59,2.71,6.08,3.73,9.34,9.14,14.51,17.71a84.24,84.24,0,0,1,10.23,23.16c2.64,10.06,6.49,24.78.37,35.12-3.83,6.47-12.23,8.53-29,12.64-12.94,3.15-19.4,4.74-27.79,2.55-12.06-3.14-14.16-10.19-20-8.62-9.63,2.56-5.54,22-18.54,37.65-9.73,11.72-23.17,14.26-33.66,16.24A64.86,64.86,0,0,1,75.3,201.2c-6.67-2.3-16.22-5.6-25-15.65A56.23,56.23,0,0,1,36.44,156C34.72,143.09,38.36,133.72,43.15,121.39Z"/></g><g class="cls-26"><path class="cls-33" d="M173.67,118.05c2,11.52-5.52,22.39-16.68,24.28s-21.8-5.92-23.75-17.44,5.52-22.39,16.69-24.28,21.79,5.92,23.74,17.44"/><path class="cls-29" d="M173.67,118.05c2,11.52-5.52,22.39-16.68,24.28s-21.8-5.92-23.75-17.44,5.52-22.39,16.69-24.28S171.72,106.53,173.67,118.05Z"/><line class="cls-34" x1="92.63" y1="112.13" x2="106.98" y2="150.33"/><line class="cls-29" x1="92.63" y1="112.13" x2="106.98" y2="150.33"/><path class="cls-35" d="M356.59,42.4c-3.15.58-6.08-.62-7.25-2.93a8,8,0,0,1-.6-4.07A7.09,7.09,0,0,1,350.33,31a5.39,5.39,0,0,1,4.44-1.48,6.93,6.93,0,0,1,3.84,1.44c.86.66,1.89,1.46,1.88,2.59a2.68,2.68,0,0,1-1.78,2.28L360,40.88"/><path class="cls-29" d="M356.59,42.4c-3.15.58-6.08-.62-7.25-2.93a8,8,0,0,1-.6-4.07A7.09,7.09,0,0,1,350.33,31a5.39,5.39,0,0,1,4.44-1.48,6.93,6.93,0,0,1,3.84,1.44c.86.66,1.89,1.46,1.88,2.59a2.68,2.68,0,0,1-1.78,2.28L360,40.88"/></g><g class="cls-36"><rect class="cls-37" x="365.46" y="78.71" width="12.49" height="14.79" transform="translate(-9.16 63.23) rotate(-9.61)"/></g><g class="cls-26"><path class="cls-29" d="M375,81.06c2.3,2.71,3.18,6.12,2.2,8.43a5.92,5.92,0,0,1-2.59,2.67,5.19,5.19,0,0,1-4.16.78c-2.08-.6-3.2-2.55-3.72-3.46a9.4,9.4,0,0,1-1.26-4.4c0-1.17-.07-2.56.76-3.14s1.75-.25,2.71.51l2.91-3.88"/><path class="cls-38" d="M370.46,36.22c-3.15.58-6.08-.62-7.25-2.93a7.9,7.9,0,0,1-.59-4.06,7,7,0,0,1,1.59-4.44,5.33,5.33,0,0,1,4.43-1.47,6.77,6.77,0,0,1,3.84,1.43c.86.66,1.89,1.46,1.88,2.59a2.67,2.67,0,0,1-1.77,2.28c.43,1.69.87,3.39,1.31,5.08"/><path class="cls-29" d="M370.46,36.22c-3.15.58-6.08-.62-7.25-2.93a7.9,7.9,0,0,1-.59-4.06,7,7,0,0,1,1.59-4.44,5.33,5.33,0,0,1,4.43-1.47,6.77,6.77,0,0,1,3.84,1.43c.86.66,1.89,1.46,1.88,2.59a2.67,2.67,0,0,1-1.77,2.28c.43,1.69.87,3.39,1.31,5.08"/></g><g class="cls-39"><rect class="cls-40" x="380.17" y="75.94" width="13.03" height="14.79" transform="translate(-8.49 65.69) rotate(-9.61)"/></g><g class="cls-26"><path class="cls-29" d="M388.51,77.45c2.87,1.82,4.6,4.82,4.29,7.4a6.71,6.71,0,0,1-1.73,3.48,5.44,5.44,0,0,1-3.7,2.2c-2.1.14-3.67-1.36-4.4-2.06a8.88,8.88,0,0,1-2.35-3.82c-.33-1.11-.73-2.45-.11-3.3a2.27,2.27,0,0,1,2.68-.44l1.7-4.77"/><path class="cls-41" d="M384.44,30.66c-3.15.58-6.08-.61-7.25-2.93a7.91,7.91,0,0,1-.6-4.06,7.06,7.06,0,0,1,1.59-4.43,5.33,5.33,0,0,1,4.44-1.48,6.82,6.82,0,0,1,3.84,1.43c.86.66,1.89,1.46,1.88,2.59a2.68,2.68,0,0,1-1.77,2.28c.43,1.7.87,3.39,1.31,5.09"/><path class="cls-29" d="M384.44,30.66c-3.15.58-6.08-.61-7.25-2.93a7.91,7.91,0,0,1-.6-4.06,7.06,7.06,0,0,1,1.59-4.43,5.33,5.33,0,0,1,4.44-1.48,6.82,6.82,0,0,1,3.84,1.43c.86.66,1.89,1.46,1.88,2.59a2.68,2.68,0,0,1-1.77,2.28c.43,1.7.87,3.39,1.31,5.09"/></g><g class="cls-42"><rect class="cls-43" x="395.67" y="71.74" width="13.03" height="13.96" transform="translate(-7.5 68.21) rotate(-9.61)"/></g><g class="cls-26"><path class="cls-29" d="M401.47,71.76c3.22.14,5.92,1.95,6.68,4.46a7.81,7.81,0,0,1-.09,4.08,6.58,6.58,0,0,1-2.33,4,5.35,5.35,0,0,1-4.64.45,7.37,7.37,0,0,1-3.56-2.24c-.74-.84-1.62-1.84-1.43-2.94a2.5,2.5,0,0,1,2.15-1.82c-.15-1.75-.3-3.49-.44-5.24"/><line class="cls-29" x1="95.76" y1="122.18" x2="363.8" y2="55.66"/><line class="cls-29" x1="99.35" y1="128.55" x2="375.9" y2="58.14"/><line class="cls-29" x1="103.18" y1="140.56" x2="391.69" y2="66.86"/><line class="cls-29" x1="100.42" y1="134.86" x2="386.59" y2="61.54"/><line class="cls-29" x1="106.04" y1="145.17" x2="374.09" y2="78.65"/><path class="cls-44" d="M261.76,85.88V86L264,105.4l.17.59a3.93,3.93,0,0,1-1.4,3.17,1.36,1.36,0,0,1-.62-1.07l-.59-5.76L259.91,86.1c-.08-.73.16-1.33.79-1.38s.94.48,1.06,1.16"/><path class="cls-29" d="M261.76,85.88V86L264,105.4l.17.59a3.93,3.93,0,0,1-1.4,3.17,1.36,1.36,0,0,1-.62-1.07l-.59-5.76L259.91,86.1c-.08-.73.16-1.33.79-1.38S261.64,85.2,261.76,85.88Z"/><path d="M264.07,106.11v0c0,.15-.07.32-.06.46a3.33,3.33,0,0,1-1.21,2.54A3.59,3.59,0,0,1,261,110a3.29,3.29,0,1,1-1.12-6.46,4,4,0,0,1,2,.16,3.27,3.27,0,0,1,2.2,2.4"/><path class="cls-29" d="M264.07,106.11v0c0,.15-.07.32-.06.46a3.33,3.33,0,0,1-1.21,2.54A3.59,3.59,0,0,1,261,110a3.29,3.29,0,1,1-1.12-6.46,4,4,0,0,1,2,.16A3.27,3.27,0,0,1,264.07,106.11Z"/><path class="cls-44" d="M231.32,111.84v-.1l-.46-19.49-.12-.6a3.83,3.83,0,0,1,1.7-3,1.42,1.42,0,0,1,.52,1.13l.05,5.78.18,16.26c0,.73-.28,1.29-.92,1.26s-.89-.59-.94-1.27"/><path class="cls-29" d="M231.32,111.84v-.1l-.46-19.49-.12-.6a3.83,3.83,0,0,1,1.7-3,1.42,1.42,0,0,1,.52,1.13l.05,5.78.18,16.26c0,.73-.28,1.29-.92,1.26S231.37,112.52,231.32,111.84Z"/><path d="M230.87,91.54v-.05c0-.15.09-.3.1-.44a3.21,3.21,0,0,1,1.44-2.37,3.63,3.63,0,0,1,1.89-.62,3.54,3.54,0,0,1,3.77,3.11,3.27,3.27,0,0,1-3.25,3.42,4.05,4.05,0,0,1-2-.4,3.42,3.42,0,0,1-2-2.65"/><path class="cls-29" d="M230.87,91.54v-.05c0-.15.09-.3.1-.44a3.21,3.21,0,0,1,1.44-2.37,3.63,3.63,0,0,1,1.89-.62,3.54,3.54,0,0,1,3.77,3.11,3.27,3.27,0,0,1-3.25,3.42,4.05,4.05,0,0,1-2-.4A3.42,3.42,0,0,1,230.87,91.54Z"/><path class="cls-44" d="M246.86,79.46v.11L249.13,99l.18.59a4,4,0,0,1-1.41,3.18,1.4,1.4,0,0,1-.62-1.08l-.59-5.76L245,79.68c-.08-.73.16-1.32.79-1.38s.94.49,1.06,1.16"/><path class="cls-29" d="M246.86,79.46v.11L249.13,99l.18.59a4,4,0,0,1-1.41,3.18,1.4,1.4,0,0,1-.62-1.08l-.59-5.76L245,79.68c-.08-.73.16-1.32.79-1.38S246.74,78.79,246.86,79.46Z"/><path d="M249.18,99.7v0c0,.14-.07.31-.06.45a3.31,3.31,0,0,1-1.21,2.54,3.59,3.59,0,0,1-1.81.85A3.28,3.28,0,1,1,245,97.13a4,4,0,0,1,2,.16,3.3,3.3,0,0,1,2.21,2.41"/><path class="cls-29" d="M249.18,99.7v0c0,.14-.07.31-.06.45a3.31,3.31,0,0,1-1.21,2.54,3.59,3.59,0,0,1-1.81.85A3.28,3.28,0,1,1,245,97.13a4,4,0,0,1,2,.16A3.3,3.3,0,0,1,249.18,99.7Z"/><path class="cls-44" d="M273.23,101.55v-.1L272.76,82l-.12-.6a3.87,3.87,0,0,1,1.69-3,1.42,1.42,0,0,1,.53,1.14l.05,5.77.18,16.26c0,.74-.28,1.3-.92,1.27s-.89-.59-.94-1.28"/><path class="cls-29" d="M273.23,101.55v-.1L272.76,82l-.12-.6a3.87,3.87,0,0,1,1.69-3,1.42,1.42,0,0,1,.53,1.14l.05,5.77.18,16.26c0,.74-.28,1.3-.92,1.27S273.28,102.24,273.23,101.55Z"/><path d="M272.78,81.26v-.05c0-.15.1-.3.11-.44a3.23,3.23,0,0,1,1.44-2.38,3.73,3.73,0,0,1,1.89-.62A3.54,3.54,0,0,1,280,80.88a3.25,3.25,0,0,1-3.24,3.42,3.94,3.94,0,0,1-2-.4,3.39,3.39,0,0,1-2-2.64"/><path class="cls-29" d="M272.78,81.26v-.05c0-.15.1-.3.11-.44a3.23,3.23,0,0,1,1.44-2.38,3.73,3.73,0,0,1,1.89-.62A3.54,3.54,0,0,1,280,80.88a3.25,3.25,0,0,1-3.24,3.42,3.94,3.94,0,0,1-2-.4A3.39,3.39,0,0,1,272.78,81.26Z"/><line class="cls-29" x1="356.45" y1="42.43" x2="356.9" y2="42.79"/><line class="cls-29" x1="360.03" y1="40.88" x2="360.04" y2="41.52"/><line class="cls-29" x1="356.67" y1="42.61" x2="357.12" y2="43.1"/><line class="cls-29" x1="387.88" y1="29.15" x2="388.02" y2="30.06"/><line class="cls-29" x1="384.44" y1="30.66" x2="384.82" y2="31.18"/><line class="cls-29" x1="388.51" y1="77.45" x2="387.75" y2="76.74"/><line class="cls-29" x1="401.47" y1="71.76" x2="401.02" y2="71.55"/><line class="cls-29" x1="375.03" y1="81.06" x2="373.66" y2="79.13"/></g><g class="cls-45"><rect class="cls-46" x="246.13" y="75.1" width="17.43" height="15.45" transform="translate(-10.25 43.69) rotate(-9.61)"/></g><g class="cls-26"><path class="cls-29" d="M262.9,88.86l-.09,0-15.53-8.76-.53-.15a4.38,4.38,0,0,1-1.68-3.17,1,1,0,0,1,1.1,0l4.57,2.67,12.89,7.52a1.21,1.21,0,0,1,.64,1.55C264,89.11,263.45,89.13,262.9,88.86Z"/><path class="cls-47" d="M299.84,67.92a1,1,0,0,1,.1-.15c.07-.08.16-.23.29-.37a3.35,3.35,0,0,1,.5-.5,5,5,0,0,1,.72-.49,4.85,4.85,0,0,1,2-.61,5.23,5.23,0,0,1,2.51.44,5.35,5.35,0,0,1,1.25.77,5,5,0,0,1,1.07,1.2,3.67,3.67,0,0,1,.4.73l0,0h0l0,.07v0l0,.06,0,.14,0,.06,0,.12a1.87,1.87,0,0,1,.07.22,4.28,4.28,0,0,1,.11,1.47,3.16,3.16,0,0,1-.71,1.73,2,2,0,0,1-.34.33l-.14.1-.08-.17c0-.11-.11-.26-.19-.45a4.75,4.75,0,0,0-.72-1.16,1.52,1.52,0,0,0-.45-.38h-.06l-.05-.05-.09-.09-.05-.05h0s.07.12,0,.06h0c-.09,0-.15-.09-.25-.13l-.55-.26-.65-.3L304,70l-.78-.34-.79-.36-.77-.37c-.25-.11-.49-.24-.69-.35s-.41-.25-.59-.33-.31-.18-.4-.23l-.15-.1"/><path class="cls-48" d="M301.43,69l0,.1,2.26,19.42.17.58a4,4,0,0,1-1.4,3.18,1.38,1.38,0,0,1-.62-1.07l-.59-5.76-1.68-16.23c-.08-.74.16-1.33.79-1.38s.94.48,1.05,1.16"/><path class="cls-29" d="M301.43,69l0,.1,2.26,19.42.17.58a4,4,0,0,1-1.4,3.18,1.38,1.38,0,0,1-.62-1.07l-.59-5.76-1.68-16.23c-.08-.74.16-1.33.79-1.38S301.32,68.27,301.43,69Z"/><path d="M303.75,89.18v0c0,.15-.07.31-.07.45a3.29,3.29,0,0,1-1.2,2.55,3.67,3.67,0,0,1-1.81.85,3.29,3.29,0,1,1-1.12-6.46,3.9,3.9,0,0,1,2,.16,3.28,3.28,0,0,1,2.2,2.4"/><path class="cls-29" d="M303.75,89.18v0c0,.15-.07.31-.07.45a3.29,3.29,0,0,1-1.2,2.55,3.67,3.67,0,0,1-1.81.85,3.29,3.29,0,1,1-1.12-6.46,3.9,3.9,0,0,1,2,.16A3.28,3.28,0,0,1,303.75,89.18Z"/><path class="cls-49" d="M328,59.35l0,.1,2.25,19.42.18.58A4,4,0,0,1,329,82.63a1.38,1.38,0,0,1-.62-1.07l-.59-5.77-1.68-16.23c-.07-.73.16-1.32.79-1.37s.94.48,1.06,1.16"/><path class="cls-29" d="M328,59.35l0,.1,2.25,19.42.18.58A4,4,0,0,1,329,82.63a1.38,1.38,0,0,1-.62-1.07l-.59-5.77-1.68-16.23c-.07-.73.16-1.32.79-1.37S327.87,58.67,328,59.35Z"/><path d="M330.31,79.58v0c0,.15-.07.31-.07.45A3.31,3.31,0,0,1,329,82.63a3.63,3.63,0,0,1-1.81.85A3.29,3.29,0,1,1,326.12,77a3.86,3.86,0,0,1,2,.17,3.27,3.27,0,0,1,2.21,2.4"/><path class="cls-29" d="M330.31,79.58v0c0,.15-.07.31-.07.45A3.31,3.31,0,0,1,329,82.63a3.63,3.63,0,0,1-1.81.85A3.29,3.29,0,1,1,326.12,77a3.86,3.86,0,0,1,2,.17A3.27,3.27,0,0,1,330.31,79.58Z"/><path class="cls-33" d="M352.62,81.09a6,6,0,0,1-.12.61,6.43,6.43,0,0,1-.59,1.46,6.36,6.36,0,0,1-1.33,1.64,6.17,6.17,0,0,1-1,.69,5.52,5.52,0,0,1-1.14.49,4.55,4.55,0,0,1-1.28.18,3.68,3.68,0,0,1-.66-.06,3.21,3.21,0,0,1-.66-.17,3.5,3.5,0,0,1-.62-.29l0,0h0l0,0h0l-.05,0-.1-.08s-.19-.14-.27-.22a3.49,3.49,0,0,1-.8-1,3.69,3.69,0,0,1-.43-1.72,2.74,2.74,0,0,1,0-.47,1.37,1.37,0,0,1,0-.17l.42.4a4.76,4.76,0,0,0,1,.7,2.18,2.18,0,0,0,.59.18h.06l.08,0,.12,0h.06l0,.15s-.16-.49,0,.13h0v-.15c.11,0,.19-.06.3-.08a6.15,6.15,0,0,0,.69-.11c.24,0,.5-.13.76-.21s.53-.17.8-.26l.82-.32,1.55-.63.67-.27c.2-.08.4-.13.55-.2a4.07,4.07,0,0,1,.53-.18"/><path class="cls-44" d="M343.32,83.12V83l0-19.46-.11-.61A3.79,3.79,0,0,1,345,60a1.47,1.47,0,0,1,.49,1.16L345.43,67l-.24,16.24c0,.73-.31,1.28-.95,1.23s-.88-.62-.92-1.31"/><path class="cls-29" d="M343.32,83.12V83l0-19.46-.11-.61A3.79,3.79,0,0,1,345,60a1.47,1.47,0,0,1,.49,1.16L345.43,67l-.24,16.24c0,.73-.31,1.28-.95,1.23S343.36,83.81,343.32,83.12Z"/><path d="M343.4,62.85V62.8c0-.15.11-.3.12-.44A3.14,3.14,0,0,1,345,60a3.65,3.65,0,0,1,1.9-.55,3.57,3.57,0,0,1,3.69,3.23,3.23,3.23,0,0,1-3.34,3.3,4.16,4.16,0,0,1-2-.46,3.42,3.42,0,0,1-1.91-2.71"/><path class="cls-29" d="M343.4,62.85V62.8c0-.15.11-.3.12-.44A3.14,3.14,0,0,1,345,60a3.65,3.65,0,0,1,1.9-.55,3.57,3.57,0,0,1,3.69,3.23,3.23,3.23,0,0,1-3.34,3.3,4.16,4.16,0,0,1-2-.46A3.42,3.42,0,0,1,343.4,62.85Z"/></g></g></g></g><text class="cls-50" transform="matrix(0.82, -0.09, 0.11, 0.99, 638.02, 225.03)"> </text><text class="cls-50" transform="translate(650.05 223.66) rotate(-6.22) scale(0.83 1)"> </text><text class="cls-50" transform="matrix(0.83, -0.09, 0.1, 0.99, 662.08, 222.35)"> </text><text class="cls-50" transform="translate(674.13 221.1) rotate(-5.64) scale(0.83 1)"> </text><text class="cls-50" transform="translate(686.09 219.78) rotate(-4.92) scale(0.83 1)">w</text><text class="cls-50" transform="matrix(0.83, -0.06, 0.07, 1, 740.75, 215.19)">i</text><text class="cls-50" transform="matrix(0.83, -0.05, 0.06, 1, 763.94, 213.49)">t</text><text class="cls-50" transform="translate(796.1 211.43) rotate(-2.98) scale(0.83 1)">h</text><text class="cls-50" transform="translate(837.87 209.31) rotate(-2.53) scale(0.83 1)"> </text><text class="cls-50" transform="translate(849.93 208.72) rotate(-2.09) scale(0.83 1)">T</text><text class="cls-50" transform="translate(892.46 207.19) rotate(-1.47) scale(0.83 1)">o</text><text class="cls-50" transform="translate(928.86 206.18) rotate(-0.77) scale(0.83 1)">m</text><text class="cls-50" transform="translate(987.48 205.5) rotate(-0.25) scale(0.83 1)"> </text><text class="cls-50" transform="matrix(0.83, 0, 0, 1, 999.59, 205.4)">L</text><text class="cls-50" transform="matrix(0.83, 0.01, -0.01, 1, 1037.14, 205.48)">a</text><text class="cls-50" transform="matrix(0.83, 0.02, -0.02, 1, 1074.46, 205.89)">C</text><text class="cls-50" transform="translate(1117.5 206.83) rotate(1.9) scale(0.83 1)">h</text><text class="cls-50" transform="translate(1159.65 208.24) rotate(2.54) scale(0.83 1)">a</text><text class="cls-50" transform="translate(1197.35 209.9) rotate(3.22) scale(0.83 1)">n</text><text class="cls-50" transform="translate(1239.67 212.3) rotate(3.9) scale(0.83 1)">c</text><text class="cls-50" transform="matrix(0.83, 0.07, -0.08, 1, 1273.92, 214.63)">e</text><text></text><g class="cls-51"><g class="cls-51"><path class="cls-52" d="M1733.44,74.29c-46.91-.88-87.61,15.42-97.24,38.95.28,27.72,43.64,50.78,97.4,51.79,46.9.88,87.6-15.42,97.24-38.95-.28-27.7-43.65-50.77-97.4-51.79"/><path class="cls-52" d="M1888.85,49.46l-63.4,72.75,68.81,72.24.19-.22c-25.5-45.71-38-92.82-5.6-144.77"/><path class="cls-52" d="M1760.78,34.6l-32.65,43.8,31.69,32.49c-.85-24.68-6.69-46.21,1-76.29"/><path class="cls-52" d="M1782.4,206.58c-11.25-34.52,2-63.39,6.53-94.26l-3.45-3.6-48.51,52,44.71,46.66Z"/><path class="cls-34" d="M1677.67,95.88a10,10,0,1,1-10.71,9.77,10.27,10.27,0,0,1,10.71-9.77"/><path d="M1677.29,116.05a10.2,10.2,0,1,1,10.89-10,10.46,10.46,0,0,1-10.89,10m.38-19.93c-5.71-.11-10.43,4.18-10.53,9.55s4.45,9.84,10.16,10,10.43-4.18,10.53-9.56-4.46-9.85-10.16-10Z"/><path class="cls-53" d="M1676.23,100a6.54,6.54,0,1,1-6.74,6.41,6.58,6.58,0,0,1,6.74-6.41"/><path d="M1676,113.25a6.68,6.68,0,1,1,6.86-6.55,6.72,6.72,0,0,1-6.86,6.55m.25-13.06a6.4,6.4,0,1,0,6.38,6.53,6.47,6.47,0,0,0-6.38-6.53Z"/><path class="cls-34" d="M1641.18,143l52.41,10.18,9-53.55c-14.8,44.68-36.83,50.75-61.39,43.37"/></g></g></svg>
